<svg width="100" height="100" viewBox="0 0 1137 1243" fill="none" xmlns="http://www.w3.org/2000/svg">
<path d="M235.5 88C222.675 108.371 220.337 123 216 139C211.663 155 96.9999 216 42.9999 394.5C-11.0001 573 11.6544 593.855 23.9999 725.5C62 1001 344 1194.04 353 1185.5C362 1176.96 373.8 1172.7 370 1193C541 1266.5 744 1264.5 905.5 1133.5C1067 1002.5 1100 887.5 1100 872.5C1100 857.5 1102.59 861.675 1100 857C1050.68 943.791 1009.33 975.798 910.5 1002.5C1001.93 959.029 1045.86 925.464 1093.5 827C1099.93 806.383 1102.08 795.745 1100 780.5C1082.71 829.03 1072.6 845.925 1054 862L1054.38 861.02C1072.18 815.617 1082.27 789.859 1082.5 726.5C1074.37 810.603 1055.93 840.812 1020 891C1076.87 791.877 1091.93 730.833 1060.5 603C1022.73 506.991 993.811 458.86 911 396C905.267 401.559 899.315 395.602 887.5 381C879.924 382.415 877.063 382.48 875 381L864.5 364L859 360.5C847.195 360.855 840.658 355.716 829 346.5C738 304 636.505 301.524 534.5 353.5C496.962 380.107 480.711 398.321 460 436.5C458.835 444.84 457.704 450.023 455 460C453.211 464.908 451.31 467.186 446.5 470.5C371 637 502 760.128 645 767.5C672.349 768.372 689.746 766.631 723.937 760.128C740.217 755.898 747.803 753.569 748.5 750.5L732.5 754C771.052 734.234 788.899 722.502 814.5 700.5L807.5 717.5C859 679 890.5 605 839.5 542.5C873.305 581.359 888.297 604.757 901.5 652C921.5 760 908 804 859 887.5C817.5 952 776.541 984.847 687 1022C632.69 1037.69 601.427 1041.29 544 1037C422.453 1016.02 366.491 986.11 288 901C259.196 866.163 246.026 843.085 227.5 796C225.93 803.933 230.665 816.131 241 840.5C233.329 826.138 229.162 816.486 222 796C179.176 657.805 172.74 577.98 229.5 426.5C299.082 292.41 353.619 235.727 491.5 183C556.103 159.432 593.064 152.684 660 149.5C667.399 146.249 667.609 144.306 657 140.5C624.55 139.864 604.122 140.664 564 144C535.693 146.13 518.035 150.586 483 165C467.216 168.151 466.284 164.925 476 152C500.662 137.668 519.658 132.586 564 129.5C579.162 129.374 580.346 128.284 577 125C564.266 123.109 549.967 122.978 522.5 123C623.449 109.177 680.72 113.07 784 140.5C880.77 168.896 930.097 196.826 1009 269C1014.21 270.361 1012.83 265.164 1009 254C1035.19 276.026 1045.8 289.318 1060.5 314L1033.5 285C1027.55 280.454 1025.49 280.107 1025 285C1044.78 314.769 1079 344 1083.5 353.5C1088 363 1092.34 364.04 1090.5 353.5L1081 332.5L1050 288C1063.81 301.016 1070.71 308.926 1081 324.5C1086.5 335.725 1089.64 340.187 1095.5 340C1099.59 336.728 1100.04 333.021 1095.5 321C1095.5 315.5 1102.15 325.129 1105 324.5C1104.05 304.06 1101 293.826 1090.5 278C1072.78 242.145 1062.12 222.228 1042 187C1035.51 196.457 1032.49 192.435 1027.5 179C1020.64 167.459 1017.59 166.782 1014 179C1019.14 219.393 1017.03 229.145 997 204.5C964.612 148.677 948.092 126.394 922.5 103C909.373 97.1548 907.453 100.07 909.5 111.5L941 149.5L914 129.5C940.798 166.402 944.568 175.765 930.5 172L914 161C907.343 164.528 902.834 162.484 893 149.5C833.179 108.884 795.039 90.903 719 67.5C650.218 52.6431 610.848 48.3772 539 49C545.207 46.763 562.216 45.4487 598.5 43C483.5 32.5 412.626 54.1236 306.5 107C295.675 120.855 289.55 122.507 278.5 112C282.945 103.891 284 100 298 88C312 76 268.289 105.206 247 126.5H235.5C246.514 75.9771 277.802 42.0486 334.5 3.50004C334.5 3.50004 334.5 -1.49999 324.5 3.50004C314.5 8.50006 343 -10.9999 306.5 13C270 37 248.326 67.6294 235.5 88Z" fill="white"/>
<path d="M360.5 1204.5C343.636 1207.78 340.616 1210.61 337 1193C358.874 1196.08 366.297 1198.35 360.5 1204.5Z" fill="white"/>
<path d="M1082.5 968.5C1097.9 959.81 1104.34 952.765 1105 929.5C1095.45 924.795 1090.65 936.674 1082.5 968.5Z" fill="white"/>
<path d="M1087 1037C1098.68 1030.73 1102.78 1026.59 1093.5 1015C1080.55 1015.57 1082.68 1023.12 1087 1037Z" fill="white"/>
<path d="M1087 1083.5C1098.31 1078.36 1099.78 1075 1087 1067.5C1079.04 1074.92 1079.05 1078.42 1087 1083.5Z" fill="white"/>
<path d="M1133.5 436.5L1119 388.5C1125.21 387.182 1128.47 389.41 1133.5 403.5C1137.3 418.713 1137.36 425.972 1133.5 436.5Z" fill="white"/>
<path d="M617 314C636.252 315.936 645.244 314.705 657 307C632.096 303.535 621.862 304.082 617 314Z" fill="white"/>
<path d="M790.5 300C791.095 307.004 808.943 309.079 814.5 307C806.194 296.705 800.76 296.448 790.5 300Z" fill="white"/>
<path d="M339 288C420.005 223.217 476.267 197.287 598.5 172C489.785 182.477 433.245 209.193 339 288Z" fill="white"/>
<path d="M639 300C677.457 300.721 699.021 301.802 737.5 307C698.813 295.127 677.263 294.338 639 300Z" fill="white"/>
<path d="M971 288C970.832 301.827 973.012 307.923 983.5 314C978.901 309.528 976.165 303.914 971 288Z" fill="white"/>
<path d="M896.5 746C892.876 724.291 894.066 718.239 901.5 717.5C905.695 737.972 905.434 745.479 896.5 746Z" fill="white"/>
<path d="M455 696C469.696 710.558 475.599 718.854 480 734C461.601 726.183 452.479 716.328 438 690.5C413.286 650.915 409.704 619.43 418 550C415.348 630.616 427.201 657.405 455 696Z" fill="white"/>
<path d="M438 656.5C449.322 681.418 458.394 692.706 480 707.5C461.951 690.334 452.794 679.103 438 656.5Z" fill="white"/>
<path d="M540 756.5C582.279 775.86 607.474 781.858 657.5 776C607.316 772.775 581.21 768.891 540 756.5Z" fill="white"/>
<path d="M748 988.5C663.643 1025.63 620.729 1030.11 548.5 1022C707.258 1016.06 773.969 986.568 855.5 890C820.475 939.989 797.116 961.848 748 988.5Z" fill="white"/>
<path d="M19.9999 444C12.2604 470.465 6.99994 522.5 6.99994 528C6.99994 533.5 1.67407 531.001 0.999944 526.5C0.325822 521.999 11.9721 454.568 19.9999 444Z" fill="white"/>
<path d="M4.99998 595.5C5.75296 588.044 4.79662 586.442 0.999944 587.5C-0.588773 642.597 2.09029 672.999 19.5 725.5C9.50834 677.626 6.37561 649.127 4.99998 595.5Z" fill="white"/>
<path d="M722.5 760.5C722.986 760.374 723.465 760.25 723.937 760.128M723.937 760.128C740.217 755.898 747.803 753.569 748.5 750.5L732.5 754C771.052 734.234 788.899 722.502 814.5 700.5L807.5 717.5C859 679 890.5 605 839.5 542.5C873.305 581.359 888.297 604.757 901.5 652C921.5 760 908 804 859 887.5C817.5 952 776.541 984.847 687 1022C632.69 1037.69 601.427 1041.29 544 1037C422.453 1016.02 366.491 986.11 288 901C259.196 866.163 246.026 843.085 227.5 796C225.93 803.933 230.665 816.131 241 840.5C233.329 826.138 229.162 816.486 222 796C179.176 657.805 172.74 577.98 229.5 426.5C299.082 292.41 353.619 235.727 491.5 183C556.103 159.432 593.064 152.684 660 149.5C667.399 146.249 667.609 144.306 657 140.5C624.55 139.864 604.122 140.664 564 144C535.693 146.13 518.035 150.586 483 165C467.216 168.151 466.284 164.925 476 152C500.662 137.668 519.658 132.586 564 129.5C579.162 129.374 580.346 128.284 577 125C564.266 123.109 549.967 122.978 522.5 123C623.449 109.177 680.72 113.07 784 140.5C880.77 168.896 930.097 196.826 1009 269C1014.21 270.361 1012.83 265.164 1009 254C1035.19 276.026 1045.8 289.318 1060.5 314L1033.5 285C1027.55 280.454 1025.49 280.107 1025 285C1044.78 314.769 1079 344 1083.5 353.5C1088 363 1092.34 364.04 1090.5 353.5L1081 332.5L1050 288C1063.81 301.016 1070.71 308.926 1081 324.5C1086.5 335.725 1089.64 340.187 1095.5 340C1099.59 336.728 1100.04 333.021 1095.5 321C1095.5 315.5 1102.15 325.129 1105 324.5C1104.05 304.06 1101 293.826 1090.5 278C1072.78 242.145 1062.12 222.228 1042 187C1035.51 196.457 1032.49 192.435 1027.5 179C1020.64 167.459 1017.59 166.782 1014 179C1019.14 219.393 1017.03 229.145 997 204.5C964.612 148.677 948.092 126.394 922.5 103C909.373 97.1548 907.453 100.07 909.5 111.5L941 149.5L914 129.5C940.798 166.402 944.568 175.765 930.5 172L914 161C907.343 164.528 902.834 162.484 893 149.5C833.179 108.884 795.039 90.903 719 67.5C650.218 52.6431 610.848 48.3772 539 49C545.207 46.763 562.217 45.4487 598.5 43C483.5 32.5 412.626 54.1236 306.5 107C295.675 120.855 289.55 122.507 278.5 112C282.945 103.891 284 100 298 88C312 76 268.289 105.206 247 126.5H235.5C246.514 75.9771 277.802 42.0486 334.5 3.50004C334.5 3.50004 334.5 -1.49999 324.5 3.50004C314.5 8.50006 343 -10.9999 306.5 13C270 37 248.326 67.6294 235.5 88C222.675 108.371 220.337 123 216 139C211.663 155 96.9999 216 42.9999 394.5C-11.0001 573 11.6544 593.855 23.9999 725.5C62 1001 344 1194.04 353 1185.5C362 1176.96 373.8 1172.7 370 1193C541 1266.5 744 1264.5 905.5 1133.5C1067 1002.5 1100 887.5 1100 872.5C1100 857.5 1102.59 861.675 1100 857C1050.68 943.791 1009.33 975.798 910.5 1002.5C1001.93 959.029 1045.86 925.464 1093.5 827C1099.93 806.383 1102.08 795.745 1100 780.5C1082.71 829.03 1072.6 845.925 1054 862C1072.03 815.984 1082.27 790.313 1082.5 726.5C1074.37 810.603 1055.93 840.812 1020 891C1076.87 791.877 1091.93 730.833 1060.5 603C1022.73 506.991 993.811 458.86 911 396C905.267 401.559 899.315 395.602 887.5 381C879.924 382.415 877.063 382.48 875 381L864.5 364L859 360.5C847.195 360.855 840.658 355.716 829 346.5C738 304 636.505 301.524 534.5 353.5C496.962 380.107 480.711 398.321 460 436.5C458.835 444.84 457.704 450.023 455 460C453.211 464.908 451.31 467.186 446.5 470.5C371 637 502 760.128 645 767.5C672.349 768.372 689.746 766.631 723.937 760.128ZM951 1125.5C973.19 1108.88 984.765 1099.61 995 1083.5C992.966 1079.05 983.254 1087.2 951 1120.5M360.5 1204.5C343.636 1207.78 340.616 1210.61 337 1193C358.874 1196.08 366.297 1198.35 360.5 1204.5ZM1082.5 968.5C1097.9 959.81 1104.34 952.765 1105 929.5C1095.45 924.795 1090.65 936.674 1082.5 968.5ZM1087 1037C1098.68 1030.73 1102.78 1026.59 1093.5 1015C1080.55 1015.57 1082.68 1023.12 1087 1037ZM1087 1083.5C1098.31 1078.36 1099.78 1075 1087 1067.5C1079.04 1074.92 1079.05 1078.42 1087 1083.5ZM1119 388.5L1133.5 436.5C1137.36 425.972 1137.3 418.713 1133.5 403.5C1128.47 389.41 1125.21 387.182 1119 388.5ZM617 314C636.252 315.936 645.244 314.705 657 307C632.096 303.535 621.862 304.082 617 314ZM790.5 300C791.095 307.004 808.943 309.079 814.5 307C806.194 296.705 800.76 296.448 790.5 300ZM339 288C420.005 223.217 476.267 197.287 598.5 172C489.785 182.477 433.245 209.193 339 288ZM639 300C677.457 300.721 699.021 301.802 737.5 307C698.813 295.127 677.263 294.338 639 300ZM971 288C970.832 301.827 973.012 307.923 983.5 314C978.901 309.528 976.165 303.914 971 288ZM896.5 746C892.876 724.292 894.066 718.239 901.5 717.5C905.695 737.972 905.434 745.479 896.5 746ZM480 734C475.599 718.854 469.696 710.558 455 696C427.201 657.405 415.348 630.616 418 550C409.704 619.43 413.286 650.915 438 690.5C452.479 716.328 461.601 726.183 480 734ZM438 656.5C449.322 681.418 458.394 692.706 480 707.5C461.951 690.334 452.794 679.103 438 656.5ZM540 756.5C582.279 775.86 607.474 781.858 657.5 776C607.316 772.775 581.21 768.891 540 756.5ZM548.5 1022C620.729 1030.11 663.643 1025.63 748 988.5C797.116 961.848 820.475 939.989 855.5 890C773.969 986.568 707.258 1016.06 548.5 1022ZM6.99994 528C6.99994 522.5 12.2604 470.465 19.9999 444C11.9721 454.568 0.325822 521.999 0.999944 526.5C1.67407 531.001 6.99994 533.5 6.99994 528ZM0.999944 587.5C4.79662 586.442 5.75296 588.044 4.99998 595.5C6.37561 649.127 9.50834 677.626 19.5 725.5C2.09029 672.999 -0.588773 642.597 0.999944 587.5Z" stroke="black"/>
</svg>
