<svg xmlns="http://www.w3.org/2000/svg" version="1.1" xmlns:xlink="http://www.w3.org/1999/xlink" xmlns:svgjs="http://svgjs.dev/svgjs" width="1440" height="560" preserveAspectRatio="none" viewBox="0 0 1440 560">
    <g mask="url(&quot;#SvgjsMask1018&quot;)" fill="none">
        <g>
            <path d="M1208 280L1192 264L1176 264L1160 264L1144 264L1128 264L1112 264L1096 264L1080 264L1064 264L1048 264L1032 264L1016 264L1000 264L984 264L968 264M728 248L712 232L696 232L680 232M1128 280L1112 296L1096 312L1080 312L1064 312L1048 312L1032 312L1016 312L1000 312L984 312L968 312L952 312L936 312M1096 280L1080 296L1064 296M792 248L776 232M776 248L760 264M1032 280L1016 296L1000 296L984 296M664 248L648 264M1304 280L1288 264L1272 264M840 264L824 264L808 264L792 264L776 264M1048 280L1032 296M952 280L936 264L920 264L904 264L888 264L872 264L856 248M744 248L728 264L712 264L696 264L680 264L664 264L648 280L632 280L616 280L600 280L584 280L568 280L552 280L536 280M1464 280L1448 280L1432 280L1416 280L1400 280L1384 280L1368 280L1352 280L1336 280L1320 280L1304 280L1288 280L1272 280L1256 264L1240 264L1224 264L1208 280L1192 280L1176 280L1160 280L1144 280L1128 280L1112 280L1096 280L1080 280L1064 280L1048 280L1032 280L1016 280L1000 280L984 280L968 280L952 280L936 280L920 280L904 280L888 280L872 280L856 264L840 264L824 248L808 248L792 248L776 248L760 248L744 248L728 248L712 248L696 248L680 248L664 248L648 248" stroke="rgba(164, 164, 164, 1)" stroke-width="2.67"></path>
            <path d="M645.33 248 a2.67 2.67 0 1 0 5.34 0 a2.67 2.67 0 1 0 -5.34 0zM965.33 264 a2.67 2.67 0 1 0 5.34 0 a2.67 2.67 0 1 0 -5.34 0zM677.33 232 a2.67 2.67 0 1 0 5.34 0 a2.67 2.67 0 1 0 -5.34 0zM933.33 312 a2.67 2.67 0 1 0 5.34 0 a2.67 2.67 0 1 0 -5.34 0zM1061.33 296 a2.67 2.67 0 1 0 5.34 0 a2.67 2.67 0 1 0 -5.34 0zM773.33 232 a2.67 2.67 0 1 0 5.34 0 a2.67 2.67 0 1 0 -5.34 0zM757.33 264 a2.67 2.67 0 1 0 5.34 0 a2.67 2.67 0 1 0 -5.34 0zM981.33 296 a2.67 2.67 0 1 0 5.34 0 a2.67 2.67 0 1 0 -5.34 0zM645.33 264 a2.67 2.67 0 1 0 5.34 0 a2.67 2.67 0 1 0 -5.34 0zM1269.33 264 a2.67 2.67 0 1 0 5.34 0 a2.67 2.67 0 1 0 -5.34 0zM773.33 264 a2.67 2.67 0 1 0 5.34 0 a2.67 2.67 0 1 0 -5.34 0zM1029.33 296 a2.67 2.67 0 1 0 5.34 0 a2.67 2.67 0 1 0 -5.34 0zM853.33 248 a2.67 2.67 0 1 0 5.34 0 a2.67 2.67 0 1 0 -5.34 0zM533.33 280 a2.67 2.67 0 1 0 5.34 0 a2.67 2.67 0 1 0 -5.34 0z" fill="rgba(164, 164, 164, 1)"></path>
            <path d="M1144 328L1128 328L1112 328M1176 312L1160 296L1144 296L1128 296M1240 280L1224 296M1160 328L1144 312M1464 296L1448 296L1432 296L1416 296L1400 296L1384 296L1368 296L1352 296L1336 296L1320 296L1304 296L1288 296L1272 296L1256 296L1240 280L1224 280L1208 296L1192 296L1176 312L1160 328L1144 328L1128 312" stroke="rgba(164, 164, 164, 1)" stroke-width="2.67"></path>
            <path d="M1125.33 312 a2.67 2.67 0 1 0 5.34 0 a2.67 2.67 0 1 0 -5.34 0zM1109.33 328 a2.67 2.67 0 1 0 5.34 0 a2.67 2.67 0 1 0 -5.34 0zM1125.33 296 a2.67 2.67 0 1 0 5.34 0 a2.67 2.67 0 1 0 -5.34 0zM1221.33 296 a2.67 2.67 0 1 0 5.34 0 a2.67 2.67 0 1 0 -5.34 0zM1141.33 312 a2.67 2.67 0 1 0 5.34 0 a2.67 2.67 0 1 0 -5.34 0z" fill="rgba(164, 164, 164, 1)"></path>
            <path d="M1464 264L1448 264L1432 264L1416 264L1400 264L1384 264L1368 264L1352 264L1336 264L1320 264" stroke="rgba(164, 164, 164, 1)" stroke-width="2.67"></path>
            <path d="M1317.33 264 a2.67 2.67 0 1 0 5.34 0 a2.67 2.67 0 1 0 -5.34 0z" fill="rgba(164, 164, 164, 1)"></path>
            <path d="M1000 328L984 344L968 344L952 344M408 360L392 376L376 376L360 376L344 376L328 376L312 376M744 344L728 328L712 328L696 328L680 328L664 328L648 328L632 344L616 344L600 344L584 328L568 328L552 328L536 328L520 328L504 328L488 328L472 328L456 328L440 328M1080 328L1064 344M808 344L792 328L776 328L760 328L744 328M440 360L424 344L408 328M1112 344L1096 344L1080 344M840 344L824 360M536 360L520 344L504 344L488 344M664 360L648 344M488 360L472 376L456 376L440 376L424 376L408 376L392 392L376 392L360 392L344 392L328 392L312 392L296 392L280 392L264 392L248 392L232 392L216 392L200 408L184 408L168 408L152 408L136 408L120 408L104 408L88 408L72 408M392 360L376 344L360 344L344 344L328 344M872 344L856 328L840 328L824 328L808 328L792 312M456 360L440 344M264 328L248 312L232 296L216 296M888 344L872 360L856 360L840 360M200 328L184 312L168 312L152 312L136 328M1048 328L1032 344M648 360L632 376M472 360L456 344M1464 312L1448 312L1432 312L1416 312L1400 312L1384 312L1368 312L1352 312L1336 312L1320 312L1304 312L1288 312L1272 312L1256 312L1240 312L1224 312L1208 312L1192 312L1176 328L1160 344L1144 344L1128 344L1112 344L1096 328L1080 328L1064 328L1048 328L1032 328L1016 328L1000 328L984 328L968 328L952 328L936 344L920 344L904 344L888 344L872 344L856 344L840 344L824 344L808 344L792 344L776 344L760 344L744 344L728 344L712 344L696 344L680 360L664 360L648 360L632 360L616 360L600 360L584 360L568 360L552 360L536 360L520 360L504 360L488 360L472 360L456 360L440 360L424 360L408 360L392 360L376 360L360 360L344 360L328 360L312 344L296 328L280 328L264 328L248 328L232 328L216 328L200 328L184 328L168 328" stroke="rgba(225, 235, 229, 1)" stroke-width="2.67"></path>
            <path d="M165.33 328 a2.67 2.67 0 1 0 5.34 0 a2.67 2.67 0 1 0 -5.34 0zM949.33 344 a2.67 2.67 0 1 0 5.34 0 a2.67 2.67 0 1 0 -5.34 0zM309.33 376 a2.67 2.67 0 1 0 5.34 0 a2.67 2.67 0 1 0 -5.34 0zM437.33 328 a2.67 2.67 0 1 0 5.34 0 a2.67 2.67 0 1 0 -5.34 0zM1061.33 344 a2.67 2.67 0 1 0 5.34 0 a2.67 2.67 0 1 0 -5.34 0zM741.33 328 a2.67 2.67 0 1 0 5.34 0 a2.67 2.67 0 1 0 -5.34 0zM405.33 328 a2.67 2.67 0 1 0 5.34 0 a2.67 2.67 0 1 0 -5.34 0zM1077.33 344 a2.67 2.67 0 1 0 5.34 0 a2.67 2.67 0 1 0 -5.34 0zM821.33 360 a2.67 2.67 0 1 0 5.34 0 a2.67 2.67 0 1 0 -5.34 0zM485.33 344 a2.67 2.67 0 1 0 5.34 0 a2.67 2.67 0 1 0 -5.34 0zM645.33 344 a2.67 2.67 0 1 0 5.34 0 a2.67 2.67 0 1 0 -5.34 0zM69.33 408 a2.67 2.67 0 1 0 5.34 0 a2.67 2.67 0 1 0 -5.34 0zM325.33 344 a2.67 2.67 0 1 0 5.34 0 a2.67 2.67 0 1 0 -5.34 0zM789.33 312 a2.67 2.67 0 1 0 5.34 0 a2.67 2.67 0 1 0 -5.34 0zM437.33 344 a2.67 2.67 0 1 0 5.34 0 a2.67 2.67 0 1 0 -5.34 0zM213.33 296 a2.67 2.67 0 1 0 5.34 0 a2.67 2.67 0 1 0 -5.34 0zM837.33 360 a2.67 2.67 0 1 0 5.34 0 a2.67 2.67 0 1 0 -5.34 0zM133.33 328 a2.67 2.67 0 1 0 5.34 0 a2.67 2.67 0 1 0 -5.34 0zM1029.33 344 a2.67 2.67 0 1 0 5.34 0 a2.67 2.67 0 1 0 -5.34 0zM629.33 376 a2.67 2.67 0 1 0 5.34 0 a2.67 2.67 0 1 0 -5.34 0zM453.33 344 a2.67 2.67 0 1 0 5.34 0 a2.67 2.67 0 1 0 -5.34 0z" fill="rgba(225, 235, 229, 1)"></path>
            <path d="M1208 232L1192 216M968 232L952 216L936 216L920 200M1112 232L1096 248L1080 248L1064 248L1048 248L1032 248L1016 248L1000 248L984 248L968 248L952 248M1448 248L1432 232L1416 232M1080 232L1064 216L1048 216M920 232L904 216M1144 232L1128 216L1112 216L1096 216L1080 216M1240 248L1224 232L1208 216M1352 248L1336 232M1464 248L1448 248L1432 248L1416 248L1400 248L1384 248L1368 248L1352 248L1336 248L1320 248L1304 248L1288 248L1272 248L1256 248L1240 248L1224 248L1208 232L1192 232L1176 232L1160 232L1144 232L1128 232L1112 232L1096 232L1080 232L1064 232L1048 232L1032 232L1016 232L1000 232L984 232L968 232L952 232L936 232L920 232L904 232" stroke="rgba(225, 235, 229, 1)" stroke-width="2.67"></path>
            <path d="M901.33 232 a2.67 2.67 0 1 0 5.34 0 a2.67 2.67 0 1 0 -5.34 0zM1189.33 216 a2.67 2.67 0 1 0 5.34 0 a2.67 2.67 0 1 0 -5.34 0zM917.33 200 a2.67 2.67 0 1 0 5.34 0 a2.67 2.67 0 1 0 -5.34 0zM949.33 248 a2.67 2.67 0 1 0 5.34 0 a2.67 2.67 0 1 0 -5.34 0zM1413.33 232 a2.67 2.67 0 1 0 5.34 0 a2.67 2.67 0 1 0 -5.34 0zM1045.33 216 a2.67 2.67 0 1 0 5.34 0 a2.67 2.67 0 1 0 -5.34 0zM901.33 216 a2.67 2.67 0 1 0 5.34 0 a2.67 2.67 0 1 0 -5.34 0zM1077.33 216 a2.67 2.67 0 1 0 5.34 0 a2.67 2.67 0 1 0 -5.34 0zM1205.33 216 a2.67 2.67 0 1 0 5.34 0 a2.67 2.67 0 1 0 -5.34 0zM1333.33 232 a2.67 2.67 0 1 0 5.34 0 a2.67 2.67 0 1 0 -5.34 0z" fill="rgba(225, 235, 229, 1)"></path>
            <path d="M984 360L968 376L952 376L936 376M728 360L712 376L696 392L680 392L664 392L648 392M776 360L760 376L744 376L728 392L712 392M792 360L776 376L760 392L744 392L728 408L712 408M856 376L840 392L824 392L808 392L792 392L776 392L760 408L744 408M904 376L888 392M808 360L792 376M1000 360L984 376M1096 360L1080 376L1064 376L1048 376L1032 376L1016 376L1000 376M1112 360L1096 376M1400 328L1384 344M824 376L808 376M1464 328L1448 328L1432 328L1416 328L1400 328L1384 328L1368 328L1352 328L1336 328L1320 328L1304 328L1288 328L1272 328L1256 328L1240 328L1224 328L1208 328L1192 328L1176 344L1160 360L1144 360L1128 360L1112 360L1096 360L1080 360L1064 360L1048 360L1032 360L1016 360L1000 360L984 360L968 360L952 360L936 360L920 360L904 376L888 376L872 376L856 376L840 376L824 376L808 360L792 360L776 360L760 360L744 360L728 360L712 360L696 360" stroke="rgba(164, 164, 164, 1)" stroke-width="2.67"></path>
            <path d="M693.33 360 a2.67 2.67 0 1 0 5.34 0 a2.67 2.67 0 1 0 -5.34 0zM933.33 376 a2.67 2.67 0 1 0 5.34 0 a2.67 2.67 0 1 0 -5.34 0zM645.33 392 a2.67 2.67 0 1 0 5.34 0 a2.67 2.67 0 1 0 -5.34 0zM709.33 392 a2.67 2.67 0 1 0 5.34 0 a2.67 2.67 0 1 0 -5.34 0zM709.33 408 a2.67 2.67 0 1 0 5.34 0 a2.67 2.67 0 1 0 -5.34 0zM741.33 408 a2.67 2.67 0 1 0 5.34 0 a2.67 2.67 0 1 0 -5.34 0zM885.33 392 a2.67 2.67 0 1 0 5.34 0 a2.67 2.67 0 1 0 -5.34 0zM789.33 376 a2.67 2.67 0 1 0 5.34 0 a2.67 2.67 0 1 0 -5.34 0zM981.33 376 a2.67 2.67 0 1 0 5.34 0 a2.67 2.67 0 1 0 -5.34 0zM997.33 376 a2.67 2.67 0 1 0 5.34 0 a2.67 2.67 0 1 0 -5.34 0zM1093.33 376 a2.67 2.67 0 1 0 5.34 0 a2.67 2.67 0 1 0 -5.34 0zM1381.33 344 a2.67 2.67 0 1 0 5.34 0 a2.67 2.67 0 1 0 -5.34 0zM805.33 376 a2.67 2.67 0 1 0 5.34 0 a2.67 2.67 0 1 0 -5.34 0z" fill="rgba(164, 164, 164, 1)"></path>
            <path d="M1464 232L1448 216" stroke="rgba(225, 235, 229, 1)" stroke-width="2.67"></path>
            <path d="M1445.33 216 a2.67 2.67 0 1 0 5.34 0 a2.67 2.67 0 1 0 -5.34 0z" fill="rgba(225, 235, 229, 1)"></path>
            <path d="M1128 376L1112 376M1384 360L1368 360L1352 360M1416 344L1400 344M1224 344L1208 360L1192 360M1256 344L1240 360L1224 360M1320 344L1304 360L1288 376L1272 376L1256 376M952 392L936 408L920 408M1336 344L1320 360M1464 344L1448 344L1432 344L1416 344L1400 360L1384 360L1368 344L1352 344L1336 344L1320 344L1304 344L1288 344L1272 344L1256 344L1240 344L1224 344L1208 344L1192 344L1176 360L1160 376L1144 376L1128 376L1112 392L1096 392L1080 392L1064 392L1048 392L1032 392L1016 392L1000 392L984 392L968 392L952 392L936 392L920 376" stroke="rgba(225, 235, 229, 1)" stroke-width="2.67"></path>
            <path d="M917.33 376 a2.67 2.67 0 1 0 5.34 0 a2.67 2.67 0 1 0 -5.34 0zM1109.33 376 a2.67 2.67 0 1 0 5.34 0 a2.67 2.67 0 1 0 -5.34 0zM1349.33 360 a2.67 2.67 0 1 0 5.34 0 a2.67 2.67 0 1 0 -5.34 0zM1397.33 344 a2.67 2.67 0 1 0 5.34 0 a2.67 2.67 0 1 0 -5.34 0zM1189.33 360 a2.67 2.67 0 1 0 5.34 0 a2.67 2.67 0 1 0 -5.34 0zM1221.33 360 a2.67 2.67 0 1 0 5.34 0 a2.67 2.67 0 1 0 -5.34 0zM1253.33 376 a2.67 2.67 0 1 0 5.34 0 a2.67 2.67 0 1 0 -5.34 0zM917.33 408 a2.67 2.67 0 1 0 5.34 0 a2.67 2.67 0 1 0 -5.34 0zM1317.33 360 a2.67 2.67 0 1 0 5.34 0 a2.67 2.67 0 1 0 -5.34 0z" fill="rgba(225, 235, 229, 1)"></path>
            <path d="M1464 360L1448 360L1432 360L1416 360L1400 376L1384 376L1368 376L1352 376L1336 376" stroke="rgba(225, 235, 229, 1)" stroke-width="2.67"></path>
            <path d="M1333.33 376 a2.67 2.67 0 1 0 5.34 0 a2.67 2.67 0 1 0 -5.34 0z" fill="rgba(225, 235, 229, 1)"></path>
            <path d="M1320 184L1304 184L1288 184L1272 184L1256 184L1240 184L1224 184L1208 184L1192 184L1176 184M1176 200L1160 216L1144 216M1240 200L1224 216M824 184L808 200L792 200L776 200L760 200L744 200L728 200L712 200M552 200L536 216L520 216L504 216L488 216L472 216L456 216L440 216L424 216L408 216L392 216L376 216L360 216L344 216M1016 200L1000 216L984 216L968 216L952 200L936 200M1400 184L1384 200L1368 200M1288 200L1272 216L1256 216L1240 232M472 200L456 184L440 184L424 184L408 184L392 184L376 184L360 168L344 168M872 184L856 200L840 200L824 200L808 216L792 216L776 216L760 216L744 216L728 216L712 216L696 216L680 216L664 216L648 232M1352 184L1336 200M632 200L616 184L600 184L584 184L568 184L552 184L536 184L520 184L504 184L488 184L472 184L456 168L440 168L424 168L408 168L392 168L376 168M1032 200L1016 216M728 184L712 168L696 168L680 168L664 168L648 168L632 168L616 168L600 168L584 168L568 168L552 168L536 168L520 168L504 168L488 168L472 168M1336 184L1320 168L1304 168L1288 168M840 184L824 168L808 168L792 168L776 168L760 168M664 200L648 184L632 184M1464 200L1448 200L1432 200L1416 200L1400 184L1384 184L1368 184L1352 184L1336 184L1320 184L1304 200L1288 200L1272 200L1256 200L1240 200L1224 200L1208 200L1192 200L1176 200L1160 200L1144 200L1128 200L1112 200L1096 200L1080 200L1064 200L1048 200L1032 200L1016 200L1000 184L984 184L968 184L952 184L936 184L920 184L904 184L888 184L872 184L856 184L840 184L824 184L808 184L792 184L776 184L760 184L744 184L728 184L712 184L696 184L680 200L664 200L648 200L632 200L616 200L600 200L584 200L568 200L552 200L536 200L520 200L504 200L488 200L472 200L456 200L440 200L424 200L408 200L392 200L376 200L360 200L344 200" stroke="rgba(164, 164, 164, 1)" stroke-width="2.67"></path>
            <path d="M341.33 200 a2.67 2.67 0 1 0 5.34 0 a2.67 2.67 0 1 0 -5.34 0zM1173.33 184 a2.67 2.67 0 1 0 5.34 0 a2.67 2.67 0 1 0 -5.34 0zM1141.33 216 a2.67 2.67 0 1 0 5.34 0 a2.67 2.67 0 1 0 -5.34 0zM1221.33 216 a2.67 2.67 0 1 0 5.34 0 a2.67 2.67 0 1 0 -5.34 0zM709.33 200 a2.67 2.67 0 1 0 5.34 0 a2.67 2.67 0 1 0 -5.34 0zM341.33 216 a2.67 2.67 0 1 0 5.34 0 a2.67 2.67 0 1 0 -5.34 0zM933.33 200 a2.67 2.67 0 1 0 5.34 0 a2.67 2.67 0 1 0 -5.34 0zM1365.33 200 a2.67 2.67 0 1 0 5.34 0 a2.67 2.67 0 1 0 -5.34 0zM1237.33 232 a2.67 2.67 0 1 0 5.34 0 a2.67 2.67 0 1 0 -5.34 0zM341.33 168 a2.67 2.67 0 1 0 5.34 0 a2.67 2.67 0 1 0 -5.34 0zM645.33 232 a2.67 2.67 0 1 0 5.34 0 a2.67 2.67 0 1 0 -5.34 0zM1333.33 200 a2.67 2.67 0 1 0 5.34 0 a2.67 2.67 0 1 0 -5.34 0zM373.33 168 a2.67 2.67 0 1 0 5.34 0 a2.67 2.67 0 1 0 -5.34 0zM1013.33 216 a2.67 2.67 0 1 0 5.34 0 a2.67 2.67 0 1 0 -5.34 0zM469.33 168 a2.67 2.67 0 1 0 5.34 0 a2.67 2.67 0 1 0 -5.34 0zM1285.33 168 a2.67 2.67 0 1 0 5.34 0 a2.67 2.67 0 1 0 -5.34 0zM757.33 168 a2.67 2.67 0 1 0 5.34 0 a2.67 2.67 0 1 0 -5.34 0zM629.33 184 a2.67 2.67 0 1 0 5.34 0 a2.67 2.67 0 1 0 -5.34 0z" fill="rgba(164, 164, 164, 1)"></path>
            <path d="M1256 392L1240 392L1224 392L1208 392M1192 376L1176 392L1160 408L1144 408L1128 408L1112 424L1096 424L1080 424L1064 424L1048 424L1032 424M1320 392L1304 376M1016 408L1000 424L984 424M968 408L952 408M1464 376L1448 376L1432 376L1416 376L1400 392L1384 392L1368 392L1352 392L1336 392L1320 392L1304 392L1288 392L1272 392L1256 392L1240 376L1224 376L1208 376L1192 376L1176 376L1160 392L1144 392L1128 392L1112 408L1096 408L1080 408L1064 408L1048 408L1032 408L1016 408L1000 408L984 408L968 408L952 424L936 424L920 424" stroke="rgba(225, 235, 229, 1)" stroke-width="2.67"></path>
            <path d="M917.33 424 a2.67 2.67 0 1 0 5.34 0 a2.67 2.67 0 1 0 -5.34 0zM1205.33 392 a2.67 2.67 0 1 0 5.34 0 a2.67 2.67 0 1 0 -5.34 0zM1029.33 424 a2.67 2.67 0 1 0 5.34 0 a2.67 2.67 0 1 0 -5.34 0zM1301.33 376 a2.67 2.67 0 1 0 5.34 0 a2.67 2.67 0 1 0 -5.34 0zM981.33 424 a2.67 2.67 0 1 0 5.34 0 a2.67 2.67 0 1 0 -5.34 0zM949.33 408 a2.67 2.67 0 1 0 5.34 0 a2.67 2.67 0 1 0 -5.34 0z" fill="rgba(225, 235, 229, 1)"></path>
            <path d="M1464 184L1448 184L1432 184L1416 184L1400 168" stroke="rgba(225, 235, 229, 1)" stroke-width="2.67"></path>
            <path d="M1397.33 168 a2.67 2.67 0 1 0 5.34 0 a2.67 2.67 0 1 0 -5.34 0z" fill="rgba(225, 235, 229, 1)"></path>
            <path d="M1208 424L1192 408L1176 408M1144 440L1128 424M1160 440L1144 424M1176 424L1160 424M984 440L968 440L952 440M1240 408L1224 408L1208 408M1464 392L1448 392L1432 392L1416 392L1400 408L1384 408L1368 408L1352 408L1336 408L1320 408L1304 408L1288 408L1272 408L1256 408L1240 408L1224 424L1208 424L1192 424L1176 424L1160 440L1144 440L1128 440L1112 440L1096 440L1080 440L1064 440L1048 440L1032 440L1016 440L1000 440L984 440L968 424" stroke="rgba(225, 235, 229, 1)" stroke-width="2.67"></path>
            <path d="M965.33 424 a2.67 2.67 0 1 0 5.34 0 a2.67 2.67 0 1 0 -5.34 0zM1173.33 408 a2.67 2.67 0 1 0 5.34 0 a2.67 2.67 0 1 0 -5.34 0zM1125.33 424 a2.67 2.67 0 1 0 5.34 0 a2.67 2.67 0 1 0 -5.34 0zM1141.33 424 a2.67 2.67 0 1 0 5.34 0 a2.67 2.67 0 1 0 -5.34 0zM1157.33 424 a2.67 2.67 0 1 0 5.34 0 a2.67 2.67 0 1 0 -5.34 0zM949.33 440 a2.67 2.67 0 1 0 5.34 0 a2.67 2.67 0 1 0 -5.34 0zM1205.33 408 a2.67 2.67 0 1 0 5.34 0 a2.67 2.67 0 1 0 -5.34 0z" fill="rgba(225, 235, 229, 1)"></path>
            <path d="M920 168L904 152L888 152L872 152L856 152L840 136L824 136L808 120L792 120L776 120L760 120L744 104L728 104L712 104L696 120L680 120L664 120L648 120L632 136L616 136L600 136L584 136L568 136L552 136L536 136M1144 184L1128 168L1112 168L1096 168L1080 168L1064 168L1048 168L1032 168L1016 168M776 152L760 136L744 136L728 136L712 136M936 168L920 152L904 136L888 136L872 136L856 136M664 152L648 136M520 152L504 136L488 136L472 120L456 120L440 120L424 120L408 120L392 120L376 120L360 120L344 120L328 136M424 152L408 136M1384 152L1368 168L1352 168L1336 168M984 168L968 152L952 152L936 152L920 136M264 136L248 120M88 136L72 152L56 152L40 152M120 136L104 120L88 120L72 120L56 120M328 152L312 152L296 152L280 152M856 168L840 168M168 136L152 152L136 152L120 152L104 152L88 168L72 168L56 168L40 168M456 152L440 136L424 136M744 152L728 168M392 152L376 136L360 136L344 136M696 152L680 136L664 136M184 136L168 120L152 120L136 120L120 120L104 104L88 104L72 104L56 104L40 104M1160 184L1144 168M200 136L184 152L168 168L152 168L136 168L120 168L104 168L88 184L72 184L56 184L40 184M1464 168L1448 168L1432 168L1416 168L1400 152L1384 152L1368 152L1352 152L1336 152L1320 152L1304 152L1288 152L1272 152L1256 168L1240 168L1224 168L1208 168L1192 168L1176 168L1160 184L1144 184L1128 184L1112 184L1096 184L1080 184L1064 184L1048 184L1032 184L1016 184L1000 168L984 168L968 168L952 168L936 168L920 168L904 168L888 168L872 168L856 168L840 152L824 152L808 152L792 152L776 152L760 152L744 152L728 152L712 152L696 152L680 152L664 152L648 152L632 152L616 152L600 152L584 152L568 152L552 152L536 152L520 152L504 152L488 152L472 152L456 152L440 152L424 152L408 152L392 152L376 152L360 152L344 152L328 152L312 136L296 136L280 136L264 136L248 136L232 136L216 136L200 136L184 136L168 136L152 136L136 136L120 136L104 136L88 136L72 136L56 136" stroke="rgba(164, 164, 164, 1)" stroke-width="2.67"></path>
            <path d="M53.33 136 a2.67 2.67 0 1 0 5.34 0 a2.67 2.67 0 1 0 -5.34 0zM533.33 136 a2.67 2.67 0 1 0 5.34 0 a2.67 2.67 0 1 0 -5.34 0zM1013.33 168 a2.67 2.67 0 1 0 5.34 0 a2.67 2.67 0 1 0 -5.34 0zM709.33 136 a2.67 2.67 0 1 0 5.34 0 a2.67 2.67 0 1 0 -5.34 0zM853.33 136 a2.67 2.67 0 1 0 5.34 0 a2.67 2.67 0 1 0 -5.34 0zM645.33 136 a2.67 2.67 0 1 0 5.34 0 a2.67 2.67 0 1 0 -5.34 0zM325.33 136 a2.67 2.67 0 1 0 5.34 0 a2.67 2.67 0 1 0 -5.34 0zM405.33 136 a2.67 2.67 0 1 0 5.34 0 a2.67 2.67 0 1 0 -5.34 0zM1333.33 168 a2.67 2.67 0 1 0 5.34 0 a2.67 2.67 0 1 0 -5.34 0zM917.33 136 a2.67 2.67 0 1 0 5.34 0 a2.67 2.67 0 1 0 -5.34 0zM245.33 120 a2.67 2.67 0 1 0 5.34 0 a2.67 2.67 0 1 0 -5.34 0zM37.33 152 a2.67 2.67 0 1 0 5.34 0 a2.67 2.67 0 1 0 -5.34 0zM53.33 120 a2.67 2.67 0 1 0 5.34 0 a2.67 2.67 0 1 0 -5.34 0zM277.33 152 a2.67 2.67 0 1 0 5.34 0 a2.67 2.67 0 1 0 -5.34 0zM837.33 168 a2.67 2.67 0 1 0 5.34 0 a2.67 2.67 0 1 0 -5.34 0zM37.33 168 a2.67 2.67 0 1 0 5.34 0 a2.67 2.67 0 1 0 -5.34 0zM421.33 136 a2.67 2.67 0 1 0 5.34 0 a2.67 2.67 0 1 0 -5.34 0zM725.33 168 a2.67 2.67 0 1 0 5.34 0 a2.67 2.67 0 1 0 -5.34 0zM341.33 136 a2.67 2.67 0 1 0 5.34 0 a2.67 2.67 0 1 0 -5.34 0zM661.33 136 a2.67 2.67 0 1 0 5.34 0 a2.67 2.67 0 1 0 -5.34 0zM37.33 104 a2.67 2.67 0 1 0 5.34 0 a2.67 2.67 0 1 0 -5.34 0zM1141.33 168 a2.67 2.67 0 1 0 5.34 0 a2.67 2.67 0 1 0 -5.34 0zM37.33 184 a2.67 2.67 0 1 0 5.34 0 a2.67 2.67 0 1 0 -5.34 0z" fill="rgba(164, 164, 164, 1)"></path>
            <path d="M296 472L280 456L264 456L248 472L232 472L216 472L200 472M584 440L568 456L552 456L536 456M1000 456L984 472L968 472L952 472L936 472L920 472L904 472L888 456M552 440L536 424M1032 456L1016 472L1000 472L984 488L968 488L952 488L936 488L920 488L904 488L888 488L872 488L856 488L840 472L824 472L808 472L792 472L776 472L760 472L744 472L728 472L712 472L696 472L680 472L664 456L648 456L632 456L616 456L600 456L584 456M504 440L488 456L472 456L456 456L440 472L424 472L408 472L392 472L376 472L360 472L344 472L328 488M1064 456L1048 472L1032 472L1016 488L1000 488L984 504L968 504L952 504L936 504L920 504L904 504L888 504L872 504L856 520L840 520L824 520L808 520L792 520L776 520L760 520L744 520L728 520L712 520L696 520M648 440L632 424L616 424L600 408L584 408L568 408L552 408L536 408L520 408L504 408L488 408L472 408L456 408L440 408L424 408L408 408L392 408L376 408L360 408L344 408L328 408L312 408L296 408L280 408L264 408L248 408M1096 456L1080 472L1064 472L1048 488L1032 488L1016 504L1000 504L984 520L968 520L952 520L936 520L920 520L904 536M920 440L904 456M824 440L808 456L792 456L776 456L760 456L744 456L728 456L712 456L696 456L680 456M1192 440L1176 456L1160 472L1144 472L1128 472L1112 472L1096 472L1080 488L1064 488L1048 504L1032 504L1016 520L1000 520L984 536L968 536L952 536L936 536L920 536M664 440L648 424L632 408L616 392L600 392L584 392L568 392L552 392L536 392L520 392M408 456L392 440L376 440L360 440M232 488L216 504L200 504L184 504L168 504L152 504L136 504L120 504L104 504L88 504L72 504L56 504L40 504M1320 424L1304 440M456 440L440 440L424 440L408 440L392 424L376 424L360 424L344 424L328 424L312 440L296 440L280 440L264 440L248 440L232 424L216 424L200 424L184 424L168 424L152 424L136 424L120 440L104 440M1352 424L1336 440L1320 440L1304 456L1288 456L1272 456L1256 456L1240 456L1224 456M888 440L872 424L856 424L840 424L824 424L808 424L792 424L776 424L760 424L744 424L728 424L712 424L696 424L680 424L664 424L648 408M1208 440L1192 456L1176 472L1160 488L1144 488L1128 488L1112 488L1096 488L1080 504L1064 504L1048 520L1032 520L1016 536L1000 536M1384 424L1368 440L1352 440L1336 456M1464 408L1448 408L1432 408L1416 408L1400 424L1384 424L1368 424L1352 424L1336 424L1320 424L1304 424L1288 424L1272 424L1256 424L1240 440L1224 440L1208 440L1192 440L1176 440L1160 456L1144 456L1128 456L1112 456L1096 456L1080 456L1064 456L1048 456L1032 456L1016 456L1000 456L984 456L968 456L952 456L936 440L920 440L904 440L888 440L872 440L856 440L840 440L824 440L808 440L792 440L776 440L760 440L744 440L728 440L712 440L696 440L680 440L664 440L648 440L632 440L616 440L600 440L584 440L568 440L552 440L536 440L520 440L504 440L488 440L472 440L456 440L440 456L424 456L408 456L392 456L376 456L360 456L344 456L328 472L312 472L296 472L280 472L264 472L248 488L232 488L216 488L200 488L184 488L168 472L152 472L136 472L120 472L104 472" stroke="rgba(164, 164, 164, 1)" stroke-width="2.67"></path>
            <path d="M101.33 472 a2.67 2.67 0 1 0 5.34 0 a2.67 2.67 0 1 0 -5.34 0zM197.33 472 a2.67 2.67 0 1 0 5.34 0 a2.67 2.67 0 1 0 -5.34 0zM533.33 456 a2.67 2.67 0 1 0 5.34 0 a2.67 2.67 0 1 0 -5.34 0zM885.33 456 a2.67 2.67 0 1 0 5.34 0 a2.67 2.67 0 1 0 -5.34 0zM533.33 424 a2.67 2.67 0 1 0 5.34 0 a2.67 2.67 0 1 0 -5.34 0zM581.33 456 a2.67 2.67 0 1 0 5.34 0 a2.67 2.67 0 1 0 -5.34 0zM325.33 488 a2.67 2.67 0 1 0 5.34 0 a2.67 2.67 0 1 0 -5.34 0zM693.33 520 a2.67 2.67 0 1 0 5.34 0 a2.67 2.67 0 1 0 -5.34 0zM245.33 408 a2.67 2.67 0 1 0 5.34 0 a2.67 2.67 0 1 0 -5.34 0zM901.33 536 a2.67 2.67 0 1 0 5.34 0 a2.67 2.67 0 1 0 -5.34 0zM901.33 456 a2.67 2.67 0 1 0 5.34 0 a2.67 2.67 0 1 0 -5.34 0zM677.33 456 a2.67 2.67 0 1 0 5.34 0 a2.67 2.67 0 1 0 -5.34 0zM917.33 536 a2.67 2.67 0 1 0 5.34 0 a2.67 2.67 0 1 0 -5.34 0zM517.33 392 a2.67 2.67 0 1 0 5.34 0 a2.67 2.67 0 1 0 -5.34 0zM357.33 440 a2.67 2.67 0 1 0 5.34 0 a2.67 2.67 0 1 0 -5.34 0zM37.33 504 a2.67 2.67 0 1 0 5.34 0 a2.67 2.67 0 1 0 -5.34 0zM1301.33 440 a2.67 2.67 0 1 0 5.34 0 a2.67 2.67 0 1 0 -5.34 0zM101.33 440 a2.67 2.67 0 1 0 5.34 0 a2.67 2.67 0 1 0 -5.34 0zM1221.33 456 a2.67 2.67 0 1 0 5.34 0 a2.67 2.67 0 1 0 -5.34 0zM645.33 408 a2.67 2.67 0 1 0 5.34 0 a2.67 2.67 0 1 0 -5.34 0zM997.33 536 a2.67 2.67 0 1 0 5.34 0 a2.67 2.67 0 1 0 -5.34 0zM1333.33 456 a2.67 2.67 0 1 0 5.34 0 a2.67 2.67 0 1 0 -5.34 0z" fill="rgba(164, 164, 164, 1)"></path>
            <path d="M728 88L712 72L696 72L680 72L664 72L648 72L632 72L616 72L600 72L584 72L568 72L552 72L536 56M1192 152L1176 136L1160 136L1144 136M856 120L840 104L824 104L808 88L792 88L776 72L760 72L744 72L728 72L712 56L696 56L680 56L664 56L648 56L632 56L616 56L600 56L584 56L568 56M1080 136L1064 120L1048 120L1032 120M552 88L536 104L520 104M1352 136L1336 120L1320 120M696 104L680 88L664 88L648 88M968 136L952 120L936 104L920 104L904 104M1240 152L1224 136L1208 136L1192 136L1176 120L1160 104L1144 104L1128 104L1112 104L1096 104L1080 104L1064 88L1048 88L1032 88L1016 88L1000 88L984 88L968 88L952 88L936 88L920 72M872 120L856 104L840 88L824 88L808 72L792 72L776 56L760 56L744 56M712 88L696 88M1448 152L1432 136L1416 136L1400 120L1384 120L1368 120L1352 120L1336 104L1320 104L1304 104L1288 104L1272 120L1256 120L1240 120L1224 104L1208 104L1192 104M984 136L968 120L952 104M952 136L936 136M1464 152L1448 152L1432 152L1416 152L1400 136L1384 136L1368 136L1352 136L1336 136L1320 136L1304 136L1288 136L1272 136L1256 152L1240 152L1224 152L1208 152L1192 152L1176 152L1160 152L1144 152L1128 152L1112 152L1096 152L1080 136L1064 136L1048 136L1032 136L1016 136L1000 136L984 136L968 136L952 136L936 120L920 120L904 120L888 120L872 120L856 120L840 120L824 120L808 104L792 104L776 88L760 88L744 88L728 88L712 88L696 104L680 104L664 104L648 104L632 88L616 88L600 88L584 88L568 88L552 88L536 88" stroke="rgba(225, 235, 229, 1)" stroke-width="2.67"></path>
            <path d="M533.33 88 a2.67 2.67 0 1 0 5.34 0 a2.67 2.67 0 1 0 -5.34 0zM533.33 56 a2.67 2.67 0 1 0 5.34 0 a2.67 2.67 0 1 0 -5.34 0zM1141.33 136 a2.67 2.67 0 1 0 5.34 0 a2.67 2.67 0 1 0 -5.34 0zM565.33 56 a2.67 2.67 0 1 0 5.34 0 a2.67 2.67 0 1 0 -5.34 0zM1029.33 120 a2.67 2.67 0 1 0 5.34 0 a2.67 2.67 0 1 0 -5.34 0zM517.33 104 a2.67 2.67 0 1 0 5.34 0 a2.67 2.67 0 1 0 -5.34 0zM1317.33 120 a2.67 2.67 0 1 0 5.34 0 a2.67 2.67 0 1 0 -5.34 0zM645.33 88 a2.67 2.67 0 1 0 5.34 0 a2.67 2.67 0 1 0 -5.34 0zM901.33 104 a2.67 2.67 0 1 0 5.34 0 a2.67 2.67 0 1 0 -5.34 0zM917.33 72 a2.67 2.67 0 1 0 5.34 0 a2.67 2.67 0 1 0 -5.34 0zM741.33 56 a2.67 2.67 0 1 0 5.34 0 a2.67 2.67 0 1 0 -5.34 0zM693.33 88 a2.67 2.67 0 1 0 5.34 0 a2.67 2.67 0 1 0 -5.34 0zM1189.33 104 a2.67 2.67 0 1 0 5.34 0 a2.67 2.67 0 1 0 -5.34 0zM949.33 104 a2.67 2.67 0 1 0 5.34 0 a2.67 2.67 0 1 0 -5.34 0zM933.33 136 a2.67 2.67 0 1 0 5.34 0 a2.67 2.67 0 1 0 -5.34 0z" fill="rgba(225, 235, 229, 1)"></path>
        </g>
    </g>
    <defs>
        <mask id="SvgjsMask1018">
            <rect width="1440" height="560" fill="#ffffff"></rect>
        </mask>
    </defs>
</svg>