<svg xmlns="http://www.w3.org/2000/svg" version="1.1" xmlns:xlink="http://www.w3.org/1999/xlink" xmlns:svgjs="http://svgjs.dev/svgjs" width="1440" height="560" preserveAspectRatio="none" viewBox="0 0 1440 560">
    <g mask="url(&quot;#SvgjsMask1020&quot;)" fill="none">
        <g>
            <path d="M744 312L728 296M744 328L760 312L760 296L760 280L760 264L760 248M744 456L760 440L760 424M744 264L728 248L728 232M744 536L728 520M728 584L744 568L744 552L744 536L744 520L744 504L744 488L744 472L744 456L744 440L744 424L744 408L744 392L744 376L744 360L744 344L744 328L744 312L744 296L744 280L744 264L744 248L744 232" stroke="rgba(164, 164, 164, 1)" stroke-width="2.67"></path>
            <path d="M741.33 232 a2.67 2.67 0 1 0 5.34 0 a2.67 2.67 0 1 0 -5.34 0zM725.33 296 a2.67 2.67 0 1 0 5.34 0 a2.67 2.67 0 1 0 -5.34 0zM757.33 248 a2.67 2.67 0 1 0 5.34 0 a2.67 2.67 0 1 0 -5.34 0zM757.33 424 a2.67 2.67 0 1 0 5.34 0 a2.67 2.67 0 1 0 -5.34 0zM725.33 232 a2.67 2.67 0 1 0 5.34 0 a2.67 2.67 0 1 0 -5.34 0zM725.33 520 a2.67 2.67 0 1 0 5.34 0 a2.67 2.67 0 1 0 -5.34 0z" fill="rgba(164, 164, 164, 1)"></path>
            <path d="M712 520L712 504L712 488L712 472L712 456M728 392L712 376L712 360M712 552L728 536M712 584L712 568L712 552L712 536L712 520L728 504L728 488L728 472L728 456L712 440L712 424L728 408L728 392L728 376" stroke="rgba(164, 164, 164, 1)" stroke-width="2.67"></path>
            <path d="M725.33 376 a2.67 2.67 0 1 0 5.34 0 a2.67 2.67 0 1 0 -5.34 0zM709.33 456 a2.67 2.67 0 1 0 5.34 0 a2.67 2.67 0 1 0 -5.34 0zM709.33 360 a2.67 2.67 0 1 0 5.34 0 a2.67 2.67 0 1 0 -5.34 0zM725.33 536 a2.67 2.67 0 1 0 5.34 0 a2.67 2.67 0 1 0 -5.34 0z" fill="rgba(164, 164, 164, 1)"></path>
            <path d="M680 520L696 504L696 488L696 472L696 456M696 552L696 536L696 520M680 440L696 424L712 408L712 392L696 376M696 584L696 568L696 552L680 536L680 520L680 504L680 488L680 472L680 456L680 440L680 424" stroke="rgba(164, 164, 164, 1)" stroke-width="2.67"></path>
            <path d="M677.33 424 a2.67 2.67 0 1 0 5.34 0 a2.67 2.67 0 1 0 -5.34 0zM693.33 456 a2.67 2.67 0 1 0 5.34 0 a2.67 2.67 0 1 0 -5.34 0zM693.33 520 a2.67 2.67 0 1 0 5.34 0 a2.67 2.67 0 1 0 -5.34 0zM693.33 376 a2.67 2.67 0 1 0 5.34 0 a2.67 2.67 0 1 0 -5.34 0z" fill="rgba(164, 164, 164, 1)"></path>
            <path d="M760 552L776 536L776 520M760 472L760 456M760 584L760 568L760 552L760 536L760 520L760 504L760 488L760 472L776 456L776 440L776 424" stroke="rgba(164, 164, 164, 1)" stroke-width="2.67"></path>
            <path d="M773.33 424 a2.67 2.67 0 1 0 5.34 0 a2.67 2.67 0 1 0 -5.34 0zM773.33 520 a2.67 2.67 0 1 0 5.34 0 a2.67 2.67 0 1 0 -5.34 0zM757.33 456 a2.67 2.67 0 1 0 5.34 0 a2.67 2.67 0 1 0 -5.34 0z" fill="rgba(164, 164, 164, 1)"></path>
            <path d="M664 520L648 504L648 488L632 472M664 456L648 440M648 376L648 360M664 424L648 408L632 392L632 376M680 584L680 568L680 552L664 536L664 520L664 504L664 488L664 472L664 456L664 440L664 424L664 408L648 392L648 376L632 360L632 344L632 328" stroke="rgba(164, 164, 164, 1)" stroke-width="2.67"></path>
            <path d="M629.33 328 a2.67 2.67 0 1 0 5.34 0 a2.67 2.67 0 1 0 -5.34 0zM629.33 472 a2.67 2.67 0 1 0 5.34 0 a2.67 2.67 0 1 0 -5.34 0zM645.33 440 a2.67 2.67 0 1 0 5.34 0 a2.67 2.67 0 1 0 -5.34 0zM645.33 360 a2.67 2.67 0 1 0 5.34 0 a2.67 2.67 0 1 0 -5.34 0zM629.33 376 a2.67 2.67 0 1 0 5.34 0 a2.67 2.67 0 1 0 -5.34 0z" fill="rgba(164, 164, 164, 1)"></path>
            <path d="M776 584L776 568" stroke="rgba(225, 235, 229, 1)" stroke-width="2.67"></path>
            <path d="M773.33 568 a2.67 2.67 0 1 0 5.34 0 a2.67 2.67 0 1 0 -5.34 0z" fill="rgba(225, 235, 229, 1)"></path>
            <path d="M664 584L664 568" stroke="rgba(164, 164, 164, 1)" stroke-width="2.67"></path>
            <path d="M661.33 568 a2.67 2.67 0 1 0 5.34 0 a2.67 2.67 0 1 0 -5.34 0z" fill="rgba(164, 164, 164, 1)"></path>
            <path d="M792 552L808 536M792 568L808 552M792 520L792 504L792 488L792 472M776 312L792 296M776 248L792 232L792 216L792 200M776 328L792 312L808 296L824 280M792 584L792 568L792 552L792 536L792 520L776 504L776 488L776 472L792 456L792 440L792 424L792 408L792 392L792 376L776 360L776 344L776 328L776 312L776 296L776 280L776 264L776 248L776 232L776 216" stroke="rgba(164, 164, 164, 1)" stroke-width="2.67"></path>
            <path d="M773.33 216 a2.67 2.67 0 1 0 5.34 0 a2.67 2.67 0 1 0 -5.34 0zM805.33 536 a2.67 2.67 0 1 0 5.34 0 a2.67 2.67 0 1 0 -5.34 0zM805.33 552 a2.67 2.67 0 1 0 5.34 0 a2.67 2.67 0 1 0 -5.34 0zM789.33 472 a2.67 2.67 0 1 0 5.34 0 a2.67 2.67 0 1 0 -5.34 0zM789.33 296 a2.67 2.67 0 1 0 5.34 0 a2.67 2.67 0 1 0 -5.34 0zM789.33 200 a2.67 2.67 0 1 0 5.34 0 a2.67 2.67 0 1 0 -5.34 0zM821.33 280 a2.67 2.67 0 1 0 5.34 0 a2.67 2.67 0 1 0 -5.34 0z" fill="rgba(164, 164, 164, 1)"></path>
            <path d="M648 584L648 568L648 552" stroke="rgba(225, 235, 229, 1)" stroke-width="2.67"></path>
            <path d="M645.33 552 a2.67 2.67 0 1 0 5.34 0 a2.67 2.67 0 1 0 -5.34 0z" fill="rgba(225, 235, 229, 1)"></path>
            <path d="M632 568L632 552L632 536M632 584L632 568L616 552" stroke="rgba(225, 235, 229, 1)" stroke-width="2.67"></path>
            <path d="M613.33 552 a2.67 2.67 0 1 0 5.34 0 a2.67 2.67 0 1 0 -5.34 0zM629.33 536 a2.67 2.67 0 1 0 5.34 0 a2.67 2.67 0 1 0 -5.34 0z" fill="rgba(225, 235, 229, 1)"></path>
            <path d="M824 472L824 456L824 440L824 424L824 408L824 392M824 520L840 504L840 488L840 472L840 456M824 504L808 488L808 472M824 584L824 568L824 552L824 536L824 520L824 504L824 488L824 472L808 456L808 440L808 424L808 408L808 392L808 376L808 360" stroke="rgba(225, 235, 229, 1)" stroke-width="2.67"></path>
            <path d="M805.33 360 a2.67 2.67 0 1 0 5.34 0 a2.67 2.67 0 1 0 -5.34 0zM821.33 392 a2.67 2.67 0 1 0 5.34 0 a2.67 2.67 0 1 0 -5.34 0zM837.33 456 a2.67 2.67 0 1 0 5.34 0 a2.67 2.67 0 1 0 -5.34 0zM805.33 472 a2.67 2.67 0 1 0 5.34 0 a2.67 2.67 0 1 0 -5.34 0z" fill="rgba(225, 235, 229, 1)"></path>
            <path d="M616 328L616 312M584 488L600 472L600 456L616 440M600 440L584 424L584 408M584 520L568 504L568 488L568 472M616 584L616 568L600 552L584 536L584 520L584 504L584 488L584 472L584 456L600 440L600 424L616 408L616 392L616 376L616 360L616 344L616 328L632 312L648 296" stroke="rgba(164, 164, 164, 1)" stroke-width="2.67"></path>
            <path d="M645.33 296 a2.67 2.67 0 1 0 5.34 0 a2.67 2.67 0 1 0 -5.34 0zM613.33 312 a2.67 2.67 0 1 0 5.34 0 a2.67 2.67 0 1 0 -5.34 0zM613.33 440 a2.67 2.67 0 1 0 5.34 0 a2.67 2.67 0 1 0 -5.34 0zM581.33 408 a2.67 2.67 0 1 0 5.34 0 a2.67 2.67 0 1 0 -5.34 0zM565.33 472 a2.67 2.67 0 1 0 5.34 0 a2.67 2.67 0 1 0 -5.34 0z" fill="rgba(164, 164, 164, 1)"></path>
            <path d="M856 376L840 360L840 344L840 328L824 312M856 536L840 520M856 408L840 392L840 376L824 360L824 344M856 440L872 424M840 584L840 568L840 552L856 536L856 520L856 504L856 488L856 472L856 456L856 440L856 424L856 408L856 392L856 376L856 360L856 344" stroke="rgba(225, 235, 229, 1)" stroke-width="2.67"></path>
            <path d="M853.33 344 a2.67 2.67 0 1 0 5.34 0 a2.67 2.67 0 1 0 -5.34 0zM821.33 312 a2.67 2.67 0 1 0 5.34 0 a2.67 2.67 0 1 0 -5.34 0zM837.33 520 a2.67 2.67 0 1 0 5.34 0 a2.67 2.67 0 1 0 -5.34 0zM821.33 344 a2.67 2.67 0 1 0 5.34 0 a2.67 2.67 0 1 0 -5.34 0zM869.33 424 a2.67 2.67 0 1 0 5.34 0 a2.67 2.67 0 1 0 -5.34 0z" fill="rgba(225, 235, 229, 1)"></path>
            <path d="M600 584L600 568L584 552L568 536" stroke="rgba(225, 235, 229, 1)" stroke-width="2.67"></path>
            <path d="M565.33 536 a2.67 2.67 0 1 0 5.34 0 a2.67 2.67 0 1 0 -5.34 0z" fill="rgba(225, 235, 229, 1)"></path>
            <path d="M856 584L856 568L856 552L872 536L872 520L872 504L872 488L872 472L872 456" stroke="rgba(164, 164, 164, 1)" stroke-width="2.67"></path>
            <path d="M869.33 456 a2.67 2.67 0 1 0 5.34 0 a2.67 2.67 0 1 0 -5.34 0z" fill="rgba(164, 164, 164, 1)"></path>
            <path d="M552 456L568 440L568 424M552 360L568 344L568 328L568 312M552 376L568 360L584 344L600 328L600 312L600 296M552 392L568 376L584 360L600 344M584 584L584 568L568 552L552 536L552 520L552 504L552 488L552 472L552 456L552 440L552 424L552 408L552 392L552 376L552 360L552 344L552 328" stroke="rgba(225, 235, 229, 1)" stroke-width="2.67"></path>
            <path d="M549.33 328 a2.67 2.67 0 1 0 5.34 0 a2.67 2.67 0 1 0 -5.34 0zM565.33 424 a2.67 2.67 0 1 0 5.34 0 a2.67 2.67 0 1 0 -5.34 0zM565.33 312 a2.67 2.67 0 1 0 5.34 0 a2.67 2.67 0 1 0 -5.34 0zM597.33 296 a2.67 2.67 0 1 0 5.34 0 a2.67 2.67 0 1 0 -5.34 0zM597.33 344 a2.67 2.67 0 1 0 5.34 0 a2.67 2.67 0 1 0 -5.34 0z" fill="rgba(225, 235, 229, 1)"></path>
            <path d="M888 264L872 248L872 232L872 216L872 200L872 184L872 168L872 152L872 136M888 360L904 344L904 328L904 312L904 296M888 104L904 88L920 72L920 56L920 40M888 56L904 40M888 152L904 136L904 120L904 104L920 88L936 72L952 56L952 40M888 296L872 280L872 264L856 248L856 232L856 216L856 200L856 184L856 168L856 152M888 200L904 184L904 168L904 152L920 136M888 328L872 312L872 296L856 280L856 264L840 248M872 584L872 568L872 552L888 536L888 520L888 504L888 488L888 472L888 456L888 440L888 424L888 408L888 392L888 376L888 360L888 344L888 328L888 312L888 296L888 280L888 264L888 248L888 232L888 216L888 200L888 184L888 168L888 152L888 136L888 120L888 104L888 88L888 72L888 56L888 40" stroke="rgba(225, 235, 229, 1)" stroke-width="2.67"></path>
            <path d="M885.33 40 a2.67 2.67 0 1 0 5.34 0 a2.67 2.67 0 1 0 -5.34 0zM869.33 136 a2.67 2.67 0 1 0 5.34 0 a2.67 2.67 0 1 0 -5.34 0zM901.33 296 a2.67 2.67 0 1 0 5.34 0 a2.67 2.67 0 1 0 -5.34 0zM917.33 40 a2.67 2.67 0 1 0 5.34 0 a2.67 2.67 0 1 0 -5.34 0zM901.33 40 a2.67 2.67 0 1 0 5.34 0 a2.67 2.67 0 1 0 -5.34 0zM949.33 40 a2.67 2.67 0 1 0 5.34 0 a2.67 2.67 0 1 0 -5.34 0zM853.33 152 a2.67 2.67 0 1 0 5.34 0 a2.67 2.67 0 1 0 -5.34 0zM917.33 136 a2.67 2.67 0 1 0 5.34 0 a2.67 2.67 0 1 0 -5.34 0zM837.33 248 a2.67 2.67 0 1 0 5.34 0 a2.67 2.67 0 1 0 -5.34 0z" fill="rgba(225, 235, 229, 1)"></path>
            <path d="M520 408L536 392M520 456L536 440L536 424L536 408M536 312L520 296L520 280L520 264L520 248M536 296L552 280L552 264L552 248L552 232L552 216L568 200M536 472L536 456M520 392L520 376L520 360L520 344M568 584L552 568L552 552L536 536L536 520L536 504L536 488L536 472L520 456L520 440L520 424L520 408L520 392L536 376L536 360L536 344L536 328L536 312L536 296L536 280L536 264L536 248L536 232L536 216" stroke="rgba(225, 235, 229, 1)" stroke-width="2.67"></path>
            <path d="M533.33 216 a2.67 2.67 0 1 0 5.34 0 a2.67 2.67 0 1 0 -5.34 0zM533.33 392 a2.67 2.67 0 1 0 5.34 0 a2.67 2.67 0 1 0 -5.34 0zM533.33 408 a2.67 2.67 0 1 0 5.34 0 a2.67 2.67 0 1 0 -5.34 0zM517.33 248 a2.67 2.67 0 1 0 5.34 0 a2.67 2.67 0 1 0 -5.34 0zM565.33 200 a2.67 2.67 0 1 0 5.34 0 a2.67 2.67 0 1 0 -5.34 0zM533.33 456 a2.67 2.67 0 1 0 5.34 0 a2.67 2.67 0 1 0 -5.34 0zM517.33 344 a2.67 2.67 0 1 0 5.34 0 a2.67 2.67 0 1 0 -5.34 0z" fill="rgba(225, 235, 229, 1)"></path>
            <path d="M904 472L920 456M920 440L904 424M920 392L904 376M904 488L920 472M936 280L920 264L920 248M888 584L888 568L888 552L904 536L904 520L904 504L904 488L904 472L904 456L920 440L920 424L920 408L920 392L920 376L920 360L920 344L920 328L920 312L920 296L936 280L936 264L936 248L936 232" stroke="rgba(164, 164, 164, 1)" stroke-width="2.67"></path>
            <path d="M933.33 232 a2.67 2.67 0 1 0 5.34 0 a2.67 2.67 0 1 0 -5.34 0zM917.33 456 a2.67 2.67 0 1 0 5.34 0 a2.67 2.67 0 1 0 -5.34 0zM901.33 424 a2.67 2.67 0 1 0 5.34 0 a2.67 2.67 0 1 0 -5.34 0zM901.33 376 a2.67 2.67 0 1 0 5.34 0 a2.67 2.67 0 1 0 -5.34 0zM917.33 472 a2.67 2.67 0 1 0 5.34 0 a2.67 2.67 0 1 0 -5.34 0zM917.33 248 a2.67 2.67 0 1 0 5.34 0 a2.67 2.67 0 1 0 -5.34 0z" fill="rgba(164, 164, 164, 1)"></path>
            <path d="M952 168L936 152M952 280L968 264L968 248L968 232M952 200L936 184L936 168M936 312L952 296L968 280M952 136L936 120L936 104M936 504L920 488M920 520L920 504M904 584L904 568L920 552L920 536L920 520L936 504L936 488L936 472L936 456L936 440L936 424L936 408L936 392L936 376L936 360L936 344L936 328L936 312L936 296L952 280L952 264L952 248L952 232L952 216L952 200L952 184L952 168L952 152L952 136L952 120L952 104" stroke="rgba(225, 235, 229, 1)" stroke-width="2.67"></path>
            <path d="M949.33 104 a2.67 2.67 0 1 0 5.34 0 a2.67 2.67 0 1 0 -5.34 0zM933.33 152 a2.67 2.67 0 1 0 5.34 0 a2.67 2.67 0 1 0 -5.34 0zM965.33 232 a2.67 2.67 0 1 0 5.34 0 a2.67 2.67 0 1 0 -5.34 0zM933.33 168 a2.67 2.67 0 1 0 5.34 0 a2.67 2.67 0 1 0 -5.34 0zM965.33 280 a2.67 2.67 0 1 0 5.34 0 a2.67 2.67 0 1 0 -5.34 0zM933.33 104 a2.67 2.67 0 1 0 5.34 0 a2.67 2.67 0 1 0 -5.34 0zM917.33 488 a2.67 2.67 0 1 0 5.34 0 a2.67 2.67 0 1 0 -5.34 0zM917.33 504 a2.67 2.67 0 1 0 5.34 0 a2.67 2.67 0 1 0 -5.34 0z" fill="rgba(225, 235, 229, 1)"></path>
            <path d="M536 584L536 568" stroke="rgba(225, 235, 229, 1)" stroke-width="2.67"></path>
            <path d="M533.33 568 a2.67 2.67 0 1 0 5.34 0 a2.67 2.67 0 1 0 -5.34 0z" fill="rgba(225, 235, 229, 1)"></path>
            <path d="M504 312L488 296M520 488L504 472M504 280L488 264M504 440L488 424M504 408L488 392L488 376M520 584L520 568L520 552L520 536L520 520L520 504L520 488L520 472L504 456L504 440L504 424L504 408L504 392L504 376L504 360L504 344L504 328L504 312L504 296L504 280L504 264" stroke="rgba(164, 164, 164, 1)" stroke-width="2.67"></path>
            <path d="M501.33 264 a2.67 2.67 0 1 0 5.34 0 a2.67 2.67 0 1 0 -5.34 0zM485.33 296 a2.67 2.67 0 1 0 5.34 0 a2.67 2.67 0 1 0 -5.34 0zM501.33 472 a2.67 2.67 0 1 0 5.34 0 a2.67 2.67 0 1 0 -5.34 0zM485.33 264 a2.67 2.67 0 1 0 5.34 0 a2.67 2.67 0 1 0 -5.34 0zM485.33 424 a2.67 2.67 0 1 0 5.34 0 a2.67 2.67 0 1 0 -5.34 0zM485.33 376 a2.67 2.67 0 1 0 5.34 0 a2.67 2.67 0 1 0 -5.34 0z" fill="rgba(164, 164, 164, 1)"></path>
            <path d="M936 584L936 568L936 552L936 536L936 520L952 504L952 488L952 472L952 456L952 440L952 424L952 408L952 392L952 376" stroke="rgba(164, 164, 164, 1)" stroke-width="2.67"></path>
            <path d="M949.33 376 a2.67 2.67 0 1 0 5.34 0 a2.67 2.67 0 1 0 -5.34 0z" fill="rgba(164, 164, 164, 1)"></path>
            <path d="M504 520L488 504L488 488L488 472L488 456M504 536L488 520M504 584L504 568L504 552L504 536L504 520L504 504" stroke="rgba(164, 164, 164, 1)" stroke-width="2.67"></path>
            <path d="M501.33 504 a2.67 2.67 0 1 0 5.34 0 a2.67 2.67 0 1 0 -5.34 0zM485.33 456 a2.67 2.67 0 1 0 5.34 0 a2.67 2.67 0 1 0 -5.34 0zM485.33 520 a2.67 2.67 0 1 0 5.34 0 a2.67 2.67 0 1 0 -5.34 0z" fill="rgba(164, 164, 164, 1)"></path>
            <path d="M968 360L952 344L952 328L952 312L968 296M984 328L968 312M952 584L952 568L952 552L952 536L952 520L968 504L968 488L968 472L968 456L968 440L968 424L968 408L968 392L968 376L968 360L968 344L984 328L984 312L984 296L984 280" stroke="rgba(225, 235, 229, 1)" stroke-width="2.67"></path>
            <path d="M981.33 280 a2.67 2.67 0 1 0 5.34 0 a2.67 2.67 0 1 0 -5.34 0zM965.33 296 a2.67 2.67 0 1 0 5.34 0 a2.67 2.67 0 1 0 -5.34 0zM965.33 312 a2.67 2.67 0 1 0 5.34 0 a2.67 2.67 0 1 0 -5.34 0z" fill="rgba(225, 235, 229, 1)"></path>
            <path d="M472 456L456 440M472 248L488 232M488 360L472 344L456 328L440 312L440 296L440 280L440 264L440 248L440 232L456 216M472 280L456 264M472 168L488 152L488 136L488 120L488 104M488 568L488 552M472 328L488 312M488 584L488 568L472 552L472 536L472 520L472 504L472 488L472 472L472 456L472 440L472 424L472 408L472 392L472 376L488 360L488 344L472 328L472 312L472 296L472 280L472 264L472 248L472 232L472 216L472 200L472 184L472 168L472 152" stroke="rgba(225, 235, 229, 1)" stroke-width="2.67"></path>
            <path d="M469.33 152 a2.67 2.67 0 1 0 5.34 0 a2.67 2.67 0 1 0 -5.34 0zM453.33 440 a2.67 2.67 0 1 0 5.34 0 a2.67 2.67 0 1 0 -5.34 0zM485.33 232 a2.67 2.67 0 1 0 5.34 0 a2.67 2.67 0 1 0 -5.34 0zM453.33 216 a2.67 2.67 0 1 0 5.34 0 a2.67 2.67 0 1 0 -5.34 0zM453.33 264 a2.67 2.67 0 1 0 5.34 0 a2.67 2.67 0 1 0 -5.34 0zM485.33 104 a2.67 2.67 0 1 0 5.34 0 a2.67 2.67 0 1 0 -5.34 0zM485.33 552 a2.67 2.67 0 1 0 5.34 0 a2.67 2.67 0 1 0 -5.34 0zM485.33 312 a2.67 2.67 0 1 0 5.34 0 a2.67 2.67 0 1 0 -5.34 0z" fill="rgba(225, 235, 229, 1)"></path>
            <path d="M984 248L1000 232M968 168L984 152L984 136L984 120L984 104L984 88L984 72L984 56L984 40M968 216L984 200L984 184L984 168M1000 296L1016 280L1016 264L1016 248L1016 232L1016 216L1016 200L1000 184L1000 168L1000 152L1000 136M1000 264L1000 248M968 88L952 72M984 232L984 216L1000 200M968 584L968 568L968 552L968 536L968 520L984 504L984 488L984 472L984 456L984 440L984 424L984 408L984 392L984 376L984 360L984 344L1000 328L1000 312L1000 296L1000 280L1000 264L984 248L984 232L968 216L968 200L968 184L968 168L968 152L968 136L968 120L968 104L968 88L968 72L968 56" stroke="rgba(164, 164, 164, 1)" stroke-width="2.67"></path>
            <path d="M965.33 56 a2.67 2.67 0 1 0 5.34 0 a2.67 2.67 0 1 0 -5.34 0zM997.33 232 a2.67 2.67 0 1 0 5.34 0 a2.67 2.67 0 1 0 -5.34 0zM981.33 40 a2.67 2.67 0 1 0 5.34 0 a2.67 2.67 0 1 0 -5.34 0zM981.33 168 a2.67 2.67 0 1 0 5.34 0 a2.67 2.67 0 1 0 -5.34 0zM997.33 136 a2.67 2.67 0 1 0 5.34 0 a2.67 2.67 0 1 0 -5.34 0zM997.33 248 a2.67 2.67 0 1 0 5.34 0 a2.67 2.67 0 1 0 -5.34 0zM949.33 72 a2.67 2.67 0 1 0 5.34 0 a2.67 2.67 0 1 0 -5.34 0zM997.33 200 a2.67 2.67 0 1 0 5.34 0 a2.67 2.67 0 1 0 -5.34 0z" fill="rgba(164, 164, 164, 1)"></path>
            <path d="M456 488L456 472L456 456M440 424L456 408M472 584L472 568L456 552L456 536L456 520L456 504L456 488L440 472L440 456L440 440L440 424L440 408L440 392" stroke="rgba(225, 235, 229, 1)" stroke-width="2.67"></path>
            <path d="M437.33 392 a2.67 2.67 0 1 0 5.34 0 a2.67 2.67 0 1 0 -5.34 0zM453.33 456 a2.67 2.67 0 1 0 5.34 0 a2.67 2.67 0 1 0 -5.34 0zM453.33 408 a2.67 2.67 0 1 0 5.34 0 a2.67 2.67 0 1 0 -5.34 0z" fill="rgba(225, 235, 229, 1)"></path>
            <path d="M1000 472L1016 456M1064 152L1080 136M1064 232L1080 216L1080 200L1080 184L1080 168L1080 152M1032 296L1048 280L1064 264M1064 248L1048 232L1032 216L1032 200L1032 184L1032 168L1032 152L1032 136L1032 120L1032 104L1032 88L1032 72L1016 56L1016 40M1016 328L1032 312L1048 296L1064 280L1080 264M1064 120L1048 104M984 584L984 568L984 552L984 536L984 520L1000 504L1000 488L1000 472L1000 456L1000 440L1000 424L1000 408L1000 392L1000 376L1000 360L1000 344L1016 328L1016 312L1032 296L1032 280L1048 264L1064 248L1064 232L1064 216L1064 200L1064 184L1064 168L1064 152L1064 136L1064 120L1064 104" stroke="rgba(225, 235, 229, 1)" stroke-width="2.67"></path>
            <path d="M1061.33 104 a2.67 2.67 0 1 0 5.34 0 a2.67 2.67 0 1 0 -5.34 0zM1013.33 456 a2.67 2.67 0 1 0 5.34 0 a2.67 2.67 0 1 0 -5.34 0zM1077.33 136 a2.67 2.67 0 1 0 5.34 0 a2.67 2.67 0 1 0 -5.34 0zM1077.33 152 a2.67 2.67 0 1 0 5.34 0 a2.67 2.67 0 1 0 -5.34 0zM1061.33 264 a2.67 2.67 0 1 0 5.34 0 a2.67 2.67 0 1 0 -5.34 0zM1013.33 40 a2.67 2.67 0 1 0 5.34 0 a2.67 2.67 0 1 0 -5.34 0zM1077.33 264 a2.67 2.67 0 1 0 5.34 0 a2.67 2.67 0 1 0 -5.34 0zM1045.33 104 a2.67 2.67 0 1 0 5.34 0 a2.67 2.67 0 1 0 -5.34 0z" fill="rgba(225, 235, 229, 1)"></path>
            <path d="M424 424L408 408L408 392L408 376M456 584L456 568L440 552L440 536L440 520L440 504L440 488L424 472L424 456L424 440L424 424L424 408" stroke="rgba(225, 235, 229, 1)" stroke-width="2.67"></path>
            <path d="M421.33 408 a2.67 2.67 0 1 0 5.34 0 a2.67 2.67 0 1 0 -5.34 0zM405.33 376 a2.67 2.67 0 1 0 5.34 0 a2.67 2.67 0 1 0 -5.34 0z" fill="rgba(225, 235, 229, 1)"></path>
            <path d="M1000 552L1016 536L1016 520L1016 504M1000 584L1000 568L1000 552L1000 536L1000 520" stroke="rgba(225, 235, 229, 1)" stroke-width="2.67"></path>
            <path d="M997.33 520 a2.67 2.67 0 1 0 5.34 0 a2.67 2.67 0 1 0 -5.34 0zM1013.33 504 a2.67 2.67 0 1 0 5.34 0 a2.67 2.67 0 1 0 -5.34 0z" fill="rgba(225, 235, 229, 1)"></path>
            <path d="M408 328L392 312L392 296L392 280L392 264L408 248L408 232L408 216L408 200L408 184L408 168L408 152L408 136L408 120M392 424L376 408L376 392L360 376M408 296L408 280L408 264M408 312L424 296M392 376L376 360L376 344M440 136L440 120L440 104L440 88M408 472L392 456L392 440L376 424M392 344L392 328L376 312M440 584L440 568L424 552L424 536L424 520L424 504L424 488L408 472L408 456L408 440L392 424L392 408L392 392L392 376L392 360L392 344L408 328L408 312L408 296L424 280L424 264L424 248L424 232L440 216L440 200L440 184L440 168L440 152L440 136L456 120L456 104L456 88L456 72" stroke="rgba(225, 235, 229, 1)" stroke-width="2.67"></path>
            <path d="M453.33 72 a2.67 2.67 0 1 0 5.34 0 a2.67 2.67 0 1 0 -5.34 0zM405.33 120 a2.67 2.67 0 1 0 5.34 0 a2.67 2.67 0 1 0 -5.34 0zM357.33 376 a2.67 2.67 0 1 0 5.34 0 a2.67 2.67 0 1 0 -5.34 0zM405.33 264 a2.67 2.67 0 1 0 5.34 0 a2.67 2.67 0 1 0 -5.34 0zM421.33 296 a2.67 2.67 0 1 0 5.34 0 a2.67 2.67 0 1 0 -5.34 0zM373.33 344 a2.67 2.67 0 1 0 5.34 0 a2.67 2.67 0 1 0 -5.34 0zM437.33 88 a2.67 2.67 0 1 0 5.34 0 a2.67 2.67 0 1 0 -5.34 0zM373.33 424 a2.67 2.67 0 1 0 5.34 0 a2.67 2.67 0 1 0 -5.34 0zM373.33 312 a2.67 2.67 0 1 0 5.34 0 a2.67 2.67 0 1 0 -5.34 0z" fill="rgba(225, 235, 229, 1)"></path>
            <path d="M1048 488L1032 472L1032 456L1032 440M1048 440L1048 424M1048 504L1032 488L1016 472M1016 584L1016 568L1032 552L1032 536L1032 520L1048 504L1048 488L1048 472L1048 456L1048 440L1032 424" stroke="rgba(164, 164, 164, 1)" stroke-width="2.67"></path>
            <path d="M1029.33 424 a2.67 2.67 0 1 0 5.34 0 a2.67 2.67 0 1 0 -5.34 0zM1029.33 440 a2.67 2.67 0 1 0 5.34 0 a2.67 2.67 0 1 0 -5.34 0zM1045.33 424 a2.67 2.67 0 1 0 5.34 0 a2.67 2.67 0 1 0 -5.34 0zM1013.33 472 a2.67 2.67 0 1 0 5.34 0 a2.67 2.67 0 1 0 -5.34 0z" fill="rgba(164, 164, 164, 1)"></path>
            <path d="M344 312L328 296L328 280M360 456L376 440M344 344L328 328L328 312M392 520L392 504L408 488M360 184L344 168L344 152L344 136M360 408L360 392M360 216L344 200L344 184L328 168L328 152L328 136L312 120L296 104L296 88L296 72L296 56M424 584L424 568L408 552L408 536L392 520L376 504L376 488L360 472L360 456L360 440L360 424L360 408L344 392L344 376L344 360L344 344L344 328L344 312L344 296L344 280L344 264L344 248L344 232L360 216L360 200L360 184L360 168L360 152L360 136" stroke="rgba(164, 164, 164, 1)" stroke-width="2.67"></path>
            <path d="M357.33 136 a2.67 2.67 0 1 0 5.34 0 a2.67 2.67 0 1 0 -5.34 0zM325.33 280 a2.67 2.67 0 1 0 5.34 0 a2.67 2.67 0 1 0 -5.34 0zM373.33 440 a2.67 2.67 0 1 0 5.34 0 a2.67 2.67 0 1 0 -5.34 0zM325.33 312 a2.67 2.67 0 1 0 5.34 0 a2.67 2.67 0 1 0 -5.34 0zM405.33 488 a2.67 2.67 0 1 0 5.34 0 a2.67 2.67 0 1 0 -5.34 0zM341.33 136 a2.67 2.67 0 1 0 5.34 0 a2.67 2.67 0 1 0 -5.34 0zM357.33 392 a2.67 2.67 0 1 0 5.34 0 a2.67 2.67 0 1 0 -5.34 0zM293.33 56 a2.67 2.67 0 1 0 5.34 0 a2.67 2.67 0 1 0 -5.34 0z" fill="rgba(164, 164, 164, 1)"></path>
            <path d="M1032 584L1032 568L1048 552L1048 536L1048 520L1064 504L1064 488L1064 472L1064 456L1064 440L1064 424L1064 408" stroke="rgba(225, 235, 229, 1)" stroke-width="2.67"></path>
            <path d="M1061.33 408 a2.67 2.67 0 1 0 5.34 0 a2.67 2.67 0 1 0 -5.34 0z" fill="rgba(225, 235, 229, 1)"></path>
            <path d="M312 248L328 232M264 88L280 72L280 56L280 40M280 104L280 88M296 168L312 152L312 136L296 120M296 152L296 136M328 392L328 376L328 360L328 344M312 216L328 200L328 184L312 168M280 120L264 104M408 584L408 568L392 552L392 536L376 520L360 504L360 488L344 472L344 456L344 440L344 424L344 408L328 392L312 376L312 360L312 344L312 328L312 312L312 296L312 280L312 264L312 248L312 232L312 216L312 200L296 184L296 168L296 152L280 136L280 120L280 104L264 88L264 72L264 56" stroke="rgba(164, 164, 164, 1)" stroke-width="2.67"></path>
            <path d="M261.33 56 a2.67 2.67 0 1 0 5.34 0 a2.67 2.67 0 1 0 -5.34 0zM325.33 232 a2.67 2.67 0 1 0 5.34 0 a2.67 2.67 0 1 0 -5.34 0zM277.33 40 a2.67 2.67 0 1 0 5.34 0 a2.67 2.67 0 1 0 -5.34 0zM277.33 88 a2.67 2.67 0 1 0 5.34 0 a2.67 2.67 0 1 0 -5.34 0zM293.33 120 a2.67 2.67 0 1 0 5.34 0 a2.67 2.67 0 1 0 -5.34 0zM293.33 136 a2.67 2.67 0 1 0 5.34 0 a2.67 2.67 0 1 0 -5.34 0zM325.33 344 a2.67 2.67 0 1 0 5.34 0 a2.67 2.67 0 1 0 -5.34 0zM309.33 168 a2.67 2.67 0 1 0 5.34 0 a2.67 2.67 0 1 0 -5.34 0zM261.33 104 a2.67 2.67 0 1 0 5.34 0 a2.67 2.67 0 1 0 -5.34 0z" fill="rgba(164, 164, 164, 1)"></path>
            <path d="M1080 328L1064 312L1064 296M1080 344L1096 328L1096 312L1096 296M1080 408L1096 392L1096 376L1096 360L1096 344M1080 424L1096 408L1112 392L1112 376L1112 360M1048 584L1048 568L1064 552L1064 536L1064 520L1080 504L1080 488L1080 472L1080 456L1080 440L1080 424L1080 408L1080 392L1080 376L1080 360L1080 344L1080 328L1080 312L1080 296" stroke="rgba(225, 235, 229, 1)" stroke-width="2.67"></path>
            <path d="M1077.33 296 a2.67 2.67 0 1 0 5.34 0 a2.67 2.67 0 1 0 -5.34 0zM1061.33 296 a2.67 2.67 0 1 0 5.34 0 a2.67 2.67 0 1 0 -5.34 0zM1093.33 296 a2.67 2.67 0 1 0 5.34 0 a2.67 2.67 0 1 0 -5.34 0zM1093.33 344 a2.67 2.67 0 1 0 5.34 0 a2.67 2.67 0 1 0 -5.34 0zM1109.33 360 a2.67 2.67 0 1 0 5.34 0 a2.67 2.67 0 1 0 -5.34 0z" fill="rgba(225, 235, 229, 1)"></path>
            <path d="M296 296L280 280L280 264L280 248L280 232M248 88L232 72L232 56L232 40M248 104L232 88L216 72L200 56L200 40M280 168L280 152M248 120L232 104L216 88L200 72L184 56L168 40M296 344L280 328M248 136L232 120L216 104L200 88L184 72L168 56L152 40M296 216L280 200L264 184L264 168M392 584L392 568L376 552L376 536L360 520L344 504L328 488L328 472L328 456L328 440L328 424L328 408L312 392L296 376L296 360L296 344L296 328L296 312L296 296L296 280L296 264L296 248L296 232L296 216L296 200L280 184L280 168L264 152L248 136L248 120L248 104L248 88L248 72" stroke="rgba(164, 164, 164, 1)" stroke-width="2.67"></path>
            <path d="M245.33 72 a2.67 2.67 0 1 0 5.34 0 a2.67 2.67 0 1 0 -5.34 0zM277.33 232 a2.67 2.67 0 1 0 5.34 0 a2.67 2.67 0 1 0 -5.34 0zM229.33 40 a2.67 2.67 0 1 0 5.34 0 a2.67 2.67 0 1 0 -5.34 0zM197.33 40 a2.67 2.67 0 1 0 5.34 0 a2.67 2.67 0 1 0 -5.34 0zM277.33 152 a2.67 2.67 0 1 0 5.34 0 a2.67 2.67 0 1 0 -5.34 0zM165.33 40 a2.67 2.67 0 1 0 5.34 0 a2.67 2.67 0 1 0 -5.34 0zM277.33 328 a2.67 2.67 0 1 0 5.34 0 a2.67 2.67 0 1 0 -5.34 0zM149.33 40 a2.67 2.67 0 1 0 5.34 0 a2.67 2.67 0 1 0 -5.34 0zM261.33 168 a2.67 2.67 0 1 0 5.34 0 a2.67 2.67 0 1 0 -5.34 0z" fill="rgba(164, 164, 164, 1)"></path>
            <path d="M1080 552L1096 536L1096 520L1112 504L1112 488L1112 472L1112 456M1128 376L1144 360L1144 344M1144 264L1128 248L1128 232L1128 216M1128 296L1128 280M1144 232L1160 216L1160 200L1160 184L1160 168L1160 152L1160 136M1128 312L1112 296L1112 280L1112 264L1112 248M1144 168L1128 152L1128 136L1128 120L1128 104L1128 88L1128 72L1128 56M1064 584L1064 568L1080 552L1080 536L1080 520L1096 504L1096 488L1096 472L1096 456L1112 440L1112 424L1128 408L1128 392L1128 376L1128 360L1128 344L1128 328L1128 312L1128 296L1144 280L1144 264L1144 248L1144 232L1144 216L1144 200L1144 184L1144 168L1144 152L1144 136" stroke="rgba(225, 235, 229, 1)" stroke-width="2.67"></path>
            <path d="M1141.33 136 a2.67 2.67 0 1 0 5.34 0 a2.67 2.67 0 1 0 -5.34 0zM1109.33 456 a2.67 2.67 0 1 0 5.34 0 a2.67 2.67 0 1 0 -5.34 0zM1141.33 344 a2.67 2.67 0 1 0 5.34 0 a2.67 2.67 0 1 0 -5.34 0zM1125.33 216 a2.67 2.67 0 1 0 5.34 0 a2.67 2.67 0 1 0 -5.34 0zM1125.33 280 a2.67 2.67 0 1 0 5.34 0 a2.67 2.67 0 1 0 -5.34 0zM1157.33 136 a2.67 2.67 0 1 0 5.34 0 a2.67 2.67 0 1 0 -5.34 0zM1109.33 248 a2.67 2.67 0 1 0 5.34 0 a2.67 2.67 0 1 0 -5.34 0zM1125.33 56 a2.67 2.67 0 1 0 5.34 0 a2.67 2.67 0 1 0 -5.34 0z" fill="rgba(225, 235, 229, 1)"></path>
            <path d="M264 344L248 328M312 456L296 440L280 424L280 408M312 424L296 408M312 488L296 472L296 456L280 440L264 424M376 584L376 568L360 552L360 536L344 520L328 504L312 488L312 472L312 456L312 440L312 424L312 408L296 392L280 376L264 360L264 344L264 328" stroke="rgba(225, 235, 229, 1)" stroke-width="2.67"></path>
            <path d="M261.33 328 a2.67 2.67 0 1 0 5.34 0 a2.67 2.67 0 1 0 -5.34 0zM245.33 328 a2.67 2.67 0 1 0 5.34 0 a2.67 2.67 0 1 0 -5.34 0zM277.33 408 a2.67 2.67 0 1 0 5.34 0 a2.67 2.67 0 1 0 -5.34 0zM293.33 408 a2.67 2.67 0 1 0 5.34 0 a2.67 2.67 0 1 0 -5.34 0zM261.33 424 a2.67 2.67 0 1 0 5.34 0 a2.67 2.67 0 1 0 -5.34 0z" fill="rgba(225, 235, 229, 1)"></path>
        </g>
    </g>
    <defs>
        <mask id="SvgjsMask1020">
            <rect width="1440" height="560" fill="#ffffff"></rect>
        </mask>
    </defs>
</svg>